<svg xmlns="http://www.w3.org/2000/svg" width="21" height="18" fill="none" xmlns:v="https://vecta.io/nano"><path d="M19.376 9.271a5.35 5.35 0 0 0 0-7.677c-2.165-2.124-5.68-2.124-7.845 0l-1.05 1.052-1.05-1.031C7.266-.531 3.751-.531 1.608 1.593A5.34 5.34 0 0 0 0 5.443c0 1.451.579 2.819 1.608 3.849L10.481 18l8.895-8.729zM1.372 5.443c0-1.094.429-2.103 1.222-2.861a4.15 4.15 0 0 1 5.83 0l2.058 1.998 2.058-2.019c1.608-1.578 4.244-1.578 5.83 0 .772.757 1.222 1.767 1.222 2.861s-.429 2.103-1.222 2.861l-7.888 7.762-7.888-7.741c-.772-.778-1.222-1.788-1.222-2.861z" fill="#000"/></svg>